<svg width="51" height="19" viewBox="0 0 51 19" fill="none" xmlns="http://www.w3.org/2000/svg">
<path d="M3.85352 0.0351562C4.39258 0.0351562 4.85547 0.234375 5.24219 0.632812C5.64062 1.01953 5.83984 1.48242 5.83984 2.02148C5.83984 2.50195 5.64648 2.91211 5.25977 3.25195C4.87305 3.58008 4.41602 3.74414 3.88867 3.74414C3.36133 3.74414 2.9043 3.5625 2.51758 3.19922C2.14258 2.82422 1.95508 2.37891 1.95508 1.86328C1.95508 1.37109 2.14258 0.943359 2.51758 0.580078C2.9043 0.216797 3.34961 0.0351562 3.85352 0.0351562ZM5.25977 15.3281C5.25977 15.9023 5.36523 16.2773 5.57617 16.4531C5.78711 16.6289 6.06836 16.7461 6.41992 16.8047C6.77148 16.8516 7.01758 16.9219 7.1582 17.0156C7.31055 17.1094 7.38672 17.3027 7.38672 17.5957C7.38672 17.9824 7.04688 18.1758 6.36719 18.1758C6.07422 18.1758 5.63477 18.1406 5.04883 18.0703C4.46289 18 4.0293 17.9648 3.74805 17.9648C3.4668 17.9648 3.05664 18.0117 2.51758 18.1055C1.97852 18.1992 1.57422 18.2461 1.30469 18.2461C1.03516 18.2461 0.800781 18.1699 0.601562 18.0176C0.414062 17.8652 0.320312 17.666 0.320312 17.4199C0.320312 17.2676 0.373047 17.1387 0.478516 17.0332C0.583984 16.916 0.853516 16.8223 1.28711 16.752C1.7207 16.6816 2.01953 16.541 2.18359 16.3301C2.35938 16.1191 2.44727 15.6094 2.44727 14.8008V8.85938C2.44727 8.35547 2.3418 8.02148 2.13086 7.85742C1.91992 7.69336 1.60938 7.57031 1.19922 7.48828C0.789062 7.40625 0.53125 7.30078 0.425781 7.17188C0.332031 7.04297 0.285156 6.88477 0.285156 6.69727C0.285156 6.48633 0.367188 6.31641 0.53125 6.1875C0.707031 6.04688 0.912109 5.97656 1.14648 5.97656C1.3457 5.97656 1.62695 6.01758 1.99023 6.09961C2.36523 6.18164 2.64062 6.22266 2.81641 6.22266C3.01562 6.22266 3.32031 6.19336 3.73047 6.13477C4.14062 6.07617 4.44531 6.04688 4.64453 6.04688C5.07812 6.04688 5.29492 6.41016 5.29492 7.13672C5.29492 7.25391 5.28906 7.41211 5.27734 7.61133C5.26562 7.79883 5.25977 7.92773 5.25977 7.99805V15.3281ZM15.666 16.9629C16.1465 16.9629 16.3867 16.7461 16.3867 16.3125V15.8379C16.3867 15.1934 16.6094 14.8711 17.0547 14.8711C17.3477 14.8711 17.5645 15.0059 17.7051 15.2754C17.8574 15.5449 17.9336 16.1074 17.9336 16.9629C17.9336 17.502 17.8926 17.8477 17.8105 18C17.7402 18.1406 17.5527 18.2285 17.248 18.2637C16.9434 18.2988 16.3164 18.3164 15.3672 18.3164H10.1113C9.44336 18.3164 9.10938 18.1113 9.10938 17.7012C9.10938 17.4082 9.27344 16.957 9.60156 16.3477L13.6094 8.96484C13.7969 8.57812 13.8906 8.2793 13.8906 8.06836C13.8906 7.81055 13.8203 7.6582 13.6797 7.61133C13.5508 7.55273 13.2754 7.52344 12.8535 7.52344H11.7988C11.166 7.52344 10.7852 7.56445 10.6562 7.64648C10.5391 7.72852 10.4102 8.01562 10.2695 8.50781C10.1406 9 9.89453 9.24609 9.53125 9.24609C9.13281 9.24609 8.93359 8.95898 8.93359 8.38477L8.89844 7.13672C8.89844 6.75 8.95117 6.49219 9.05664 6.36328C9.16211 6.22266 9.33203 6.15234 9.56641 6.15234H17.1777C17.3184 6.15234 17.4414 6.21094 17.5469 6.32812C17.6523 6.43359 17.7051 6.55664 17.7051 6.69727C17.7051 6.94336 17.5527 7.35352 17.248 7.92773L13.0293 15.5918C12.877 15.8613 12.8008 16.1074 12.8008 16.3301C12.8008 16.752 13.0352 16.9629 13.5039 16.9629H15.666ZM26.1074 16.9629C26.5879 16.9629 26.8281 16.7461 26.8281 16.3125V15.8379C26.8281 15.1934 27.0508 14.8711 27.4961 14.8711C27.7891 14.8711 28.0059 15.0059 28.1465 15.2754C28.2988 15.5449 28.375 16.1074 28.375 16.9629C28.375 17.502 28.334 17.8477 28.252 18C28.1816 18.1406 27.9941 18.2285 27.6895 18.2637C27.3848 18.2988 26.7578 18.3164 25.8086 18.3164H20.5527C19.8848 18.3164 19.5508 18.1113 19.5508 17.7012C19.5508 17.4082 19.7148 16.957 20.043 16.3477L24.0508 8.96484C24.2383 8.57812 24.332 8.2793 24.332 8.06836C24.332 7.81055 24.2617 7.6582 24.1211 7.61133C23.9922 7.55273 23.7168 7.52344 23.2949 7.52344H22.2402C21.6074 7.52344 21.2266 7.56445 21.0977 7.64648C20.9805 7.72852 20.8516 8.01562 20.7109 8.50781C20.582 9 20.3359 9.24609 19.9727 9.24609C19.5742 9.24609 19.375 8.95898 19.375 8.38477L19.3398 7.13672C19.3398 6.75 19.3926 6.49219 19.498 6.36328C19.6035 6.22266 19.7734 6.15234 20.0078 6.15234H27.6191C27.7598 6.15234 27.8828 6.21094 27.9883 6.32812C28.0938 6.43359 28.1465 6.55664 28.1465 6.69727C28.1465 6.94336 27.9941 7.35352 27.6895 7.92773L23.4707 15.5918C23.3184 15.8613 23.2422 16.1074 23.2422 16.3301C23.2422 16.752 23.4766 16.9629 23.9453 16.9629H26.1074ZM42.7715 15.082C42.7715 15.9258 43.334 16.5117 44.459 16.8398C44.7402 16.9219 44.9453 17.0156 45.0742 17.1211C45.2148 17.2266 45.2852 17.4258 45.2852 17.7188C45.2852 17.8711 45.1914 18 45.0039 18.1055C44.8281 18.2227 44.6348 18.2812 44.4238 18.2812C44.2012 18.2812 43.8965 18.2285 43.5098 18.123C43.1348 18.0176 42.8301 17.9648 42.5957 17.9648C42.3262 17.9648 41.9863 18.0176 41.5762 18.123C41.166 18.2285 40.8906 18.2812 40.75 18.2812C40.5859 18.2812 40.4219 18.2227 40.2578 18.1055C40.1055 17.9883 40.0293 17.8711 40.0293 17.7539C40.0293 17.5664 39.9707 17.4727 39.8535 17.4727C39.7715 17.4727 39.666 17.5137 39.5371 17.5957C38.2129 18.416 36.7832 18.8262 35.248 18.8262C34.5215 18.8262 33.707 18.6387 32.8047 18.2637C31.9141 17.8887 31.1992 17.3145 30.6602 16.541C30.1211 15.7559 29.8516 14.7891 29.8516 13.6406C29.8516 12.4219 30.4316 11.3438 31.5918 10.4062C32.7637 9.46875 34.2695 9 36.1094 9C36.7305 9 37.4102 9.17578 38.1484 9.52734C38.8984 9.86719 39.2734 10.2188 39.2734 10.582C39.2734 10.7578 39.1973 10.8984 39.0449 11.0039C38.8926 11.1094 38.7051 11.1621 38.4824 11.1621C38.3301 11.1621 38.0312 11.0566 37.5859 10.8457C37.1406 10.623 36.6836 10.5117 36.2148 10.5117C35.2539 10.5117 34.457 10.7988 33.8242 11.373C33.1914 11.9355 32.875 12.6914 32.875 13.6406C32.875 14.7422 33.2383 15.5918 33.9648 16.1895C34.6914 16.7754 35.5293 17.0684 36.4785 17.0684C37.334 17.0684 38.1191 16.7871 38.834 16.2246C39.5605 15.6621 39.9238 14.9121 39.9238 13.9746V9.21094C39.9238 8.49609 39.6836 7.91602 39.2031 7.4707C38.7344 7.02539 38.1016 6.80273 37.3047 6.80273C36.2852 6.80273 35.2949 7.125 34.334 7.76953C34.0059 7.99219 33.7832 8.10352 33.666 8.10352C33.3848 8.10352 33.1445 8.0332 32.9453 7.89258C32.7461 7.74023 32.6465 7.54688 32.6465 7.3125C32.6465 6.73828 33.168 6.25195 34.2109 5.85352C35.2656 5.45508 36.4141 5.25586 37.6562 5.25586C39.1914 5.25586 40.4277 5.64258 41.3652 6.41602C42.3027 7.18945 42.7715 8.10938 42.7715 9.17578V15.082ZM48.3086 14.7656C48.8125 14.7656 49.2461 14.9355 49.6094 15.2754C49.9727 15.6152 50.1543 16.0547 50.1543 16.5938C50.1543 17.1445 49.9785 17.5781 49.627 17.8945C49.2754 18.1992 48.8594 18.3516 48.3789 18.3516C47.957 18.3516 47.5352 18.1758 47.1133 17.8242C46.6914 17.4609 46.4805 17.0508 46.4805 16.5938C46.4805 16.1016 46.6621 15.6738 47.0254 15.3105C47.3887 14.9473 47.8164 14.7656 48.3086 14.7656Z" fill="black" fill-opacity="0.6"/>
</svg>
