<svg width="34" height="34" viewBox="0 0 34 34" fill="none" xmlns="http://www.w3.org/2000/svg">
<path d="M33.2 17.396C33.2 16.28 33.092 15.128 32.912 14.048H17.324V20.42H26.252C25.892 22.472 24.704 24.272 22.94 25.424L28.268 29.564C31.4 26.648 33.2 22.4 33.2 17.396Z" fill="white"/>
<path d="M17.324 33.524C21.788 33.524 25.532 32.048 28.268 29.528L22.94 25.424C21.464 26.432 19.556 27.008 17.324 27.008C13.004 27.008 9.36796 24.092 8.03596 20.204L2.56396 24.416C5.37196 29.996 11.06 33.524 17.324 33.524Z" fill="white"/>
<path d="M8.03596 20.168C7.35196 18.116 7.35196 15.884 8.03596 13.832L2.56396 9.584C0.22396 14.264 0.22396 19.772 2.56396 24.416L8.03596 20.168Z" fill="white"/>
<path d="M17.324 7.028C19.664 6.992 21.968 7.892 23.66 9.512L28.376 4.76C25.388 1.952 21.428 0.440001 17.324 0.476001C11.06 0.476001 5.37196 4.004 2.56396 9.584L8.03596 13.832C9.36796 9.908 13.004 7.028 17.324 7.028Z" fill="white"/>
</svg>
